<svg width="184" height="95" viewBox="0 0 184 95" fill="none" xmlns="http://www.w3.org/2000/svg">
<path d="M4.76837e-06 93.44V1.28H10.496V93.44H4.76837e-06ZM61.696 93.44V1.28H72.192V93.44H61.696ZM5.37601 40.832H66.304V50.048H5.37601V40.832ZM138.41 94.72C128.767 94.72 120.49 92.672 113.578 88.576C106.666 84.48 101.375 78.848 97.706 71.68C94.0367 64.4267 92.202 56.192 92.202 46.976C92.202 37.8453 94.0793 29.7387 97.834 22.656C101.589 15.5733 106.751 10.0267 113.322 6.016C119.978 2.00533 127.53 0 135.978 0C144.597 0 152.191 2.00533 158.762 6.016C165.418 10.0267 170.623 15.5733 174.378 22.656C178.133 29.7387 180.01 37.888 180.01 47.104C180.01 53.9307 178.858 60.288 176.554 66.176C174.25 71.9787 170.879 76.8427 166.442 80.768C162.005 84.6933 156.501 87.3387 149.93 88.704L138.41 94.72ZM135.978 85.76C142.719 85.76 148.565 84.096 153.514 80.768C158.463 77.3547 162.303 72.704 165.034 66.816C167.85 60.928 169.258 54.272 169.258 46.848C169.258 39.5093 167.85 33.024 165.034 27.392C162.303 21.76 158.421 17.3653 153.386 14.208C148.437 11.0507 142.634 9.472 135.978 9.472C129.322 9.472 123.519 11.0507 118.57 14.208C113.621 17.3653 109.781 21.76 107.05 27.392C104.319 32.9387 102.954 39.424 102.954 46.848C102.954 54.3573 104.319 61.056 107.05 66.944C109.866 72.7467 113.749 77.3547 118.698 80.768C123.647 84.096 129.407 85.76 135.978 85.76ZM138.41 94.72L136.106 87.808L183.466 84.224V93.44C178.261 93.44 173.866 93.4827 170.282 93.568C166.783 93.7387 163.541 93.9093 160.554 94.08C157.567 94.2507 154.367 94.3787 150.954 94.464C147.541 94.6347 143.359 94.72 138.41 94.72Z" fill="#007FFF"/>
</svg>
